name D:\school\WTK\thesis\model\3dpredictsim\Results\MidTarsalJoint\Fal_s1_bCst_PF_Natali2010_ls150_MT_k300_MTP_Mf1_spx10_PIM_w1e+03_w1e+04_ig23.mot
datacolumns 128
datarows 4
range 0.00000000 0.03180878
endheader
time	pelvis_tilt	pelvis_list	pelvis_rotation	pelvis_tx	pelvis_ty	pelvis_tz	hip_flexion_l	hip_adduction_l	hip_rotation_l	hip_flexion_r	hip_adduction_r	hip_rotation_r	knee_angle_l	knee_angle_r	ankle_angle_l	ankle_angle_r	subtalar_angle_l	subtalar_angle_r	mtj_angle_l	mtj_angle_r	mtp_angle_l	mtp_angle_r	lumbar_extension	lumbar_bending	lumbar_rotation	arm_flex_l	arm_add_l	arm_rot_l	arm_flex_r	arm_add_r	arm_rot_r	elbow_flex_l	elbow_flex_r	pro_sup_l	pro_sup_r	glut_med1_l/activation	glut_med2_l/activation	glut_med3_l/activation	glut_min1_l/activation	glut_min2_l/activation	glut_min3_l/activation	semimem_l/activation	semiten_l/activation	bifemlh_l/activation	bifemsh_l/activation	sar_l/activation	add_long_l/activation	add_brev_l/activation	add_mag1_l/activation	add_mag2_l/activation	add_mag3_l/activation	tfl_l/activation	pect_l/activation	grac_l/activation	glut_max1_l/activation	glut_max2_l/activation	glut_max3_l/activation	iliacus_l/activation	psoas_l/activation	quad_fem_l/activation	gem_l/activation	peri_l/activation	rect_fem_l/activation	vas_med_l/activation	vas_int_l/activation	vas_lat_l/activation	med_gas_l/activation	lat_gas_l/activation	soleus_l/activation	tib_post_l/activation	flex_dig_l/activation	flex_hal_l/activation	tib_ant_l/activation	per_brev_l/activation	per_long_l/activation	per_tert_l/activation	ext_dig_l/activation	ext_hal_l/activation	ercspn_l/activation	intobl_l/activation	extobl_l/activation	glut_med1_r/activation	glut_med2_r/activation	glut_med3_r/activation	glut_min1_r/activation	glut_min2_r/activation	glut_min3_r/activation	semimem_r/activation	semiten_r/activation	bifemlh_r/activation	bifemsh_r/activation	sar_r/activation	add_long_r/activation	add_brev_r/activation	add_mag1_r/activation	add_mag2_r/activation	add_mag3_r/activation	tfl_r/activation	pect_r/activation	grac_r/activation	glut_max1_r/activation	glut_max2_r/activation	glut_max3_r/activation	iliacus_r/activation	psoas_r/activation	quad_fem_r/activation	gem_r/activation	peri_r/activation	rect_fem_r/activation	vas_med_r/activation	vas_int_r/activation	vas_lat_r/activation	med_gas_r/activation	lat_gas_r/activation	soleus_r/activation	tib_post_r/activation	flex_dig_r/activation	flex_hal_r/activation	tib_ant_r/activation	per_brev_r/activation	per_long_r/activation	per_tert_r/activation	ext_dig_r/activation	ext_hal_r/activation	ercspn_r/activation	intobl_r/activation	extobl_r/activation	
          0.00000000	         -2.93017629	         -0.66394041	          3.57423721	          0.00000000	          0.92296319	         -0.00263356	        -15.90166328	          1.16425500	          7.13627413	         25.85868048	          2.57013534	         -2.13582000	         -8.24325778	         -7.44645857	          0.24113603	          3.99607354	         10.16073681	         -1.14939873	          3.43822380	          0.13258882	         11.22419058	          1.04701632	         -1.83836318	         -0.46107453	         -1.59643608	          4.42747477	        -13.45588755	         13.28029654	         -5.22533700	        -13.45250963	          6.83277512	         28.96844368	         17.78059021	         86.51662706	         86.51662706	          0.29227519	          0.18379391	          0.10118760	          0.30017904	          0.25776372	          0.17650157	          0.05000332	          0.05000058	          0.05000052	          0.05112214	          0.11281037	          0.05000092	          0.05000070	          0.05000099	          0.05000253	          0.05000118	          0.37069853	          0.05000800	          0.05000279	          0.05001555	          0.05000263	          0.05000202	          0.36443074	          0.65386498	          0.05000100	          0.05002264	          0.09586333	          0.17296805	          0.05000117	          0.05000111	          0.05000104	          0.28283075	          0.36820263	          0.33340068	          0.31347870	          0.31668680	          0.38512742	          0.05000010	          0.20691669	          0.20205792	          0.05000055	          0.05000024	          0.05001138	          0.05000009	          0.05284087	          0.08223643	          0.05883574	          0.05883559	          0.05000037	          0.05883594	          0.05883587	          0.05001619	          0.13785345	          0.06321876	          0.15340182	          0.05001464	          0.05000070	          0.16650705	          0.29357167	          0.13160716	          0.18488836	          0.12719626	          0.05000051	          0.05059522	          0.15968307	          0.05000621	          0.05686592	          0.11681716	          0.06361655	          0.05036642	          0.36287046	          0.20241363	          0.09105164	          0.05000020	          0.05000252	          0.05000273	          0.05000162	          0.05000029	          0.05000072	          0.05000006	          0.07511582	          0.06923295	          0.08146240	          0.46952618	          0.19122198	          0.12809956	          0.16139023	          0.56729166	          0.06703751	          0.05000010	          0.09974696	          0.09586399	
          0.01060293	         -2.92883613	         -0.71548138	          3.75894735	          0.01571841	          0.92282229	         -0.00241761	        -15.85485255	          0.94721428	          7.03420328	         25.33130385	          2.88878116	         -1.95397546	         -9.87611692	         -8.00897559	         -0.29983207	          3.25284440	         11.04618714	         -1.44993131	          2.39357993	          0.11343833	         13.51478227	          0.71038570	         -1.66467873	         -0.27128061	         -1.65198083	          4.19079803	        -13.46208169	         13.58216087	         -5.94016622	        -13.45011083	          6.59964720	         29.82481677	         17.53466071	         86.51662706	         86.51662706	          0.24838235	          0.15619238	          0.08599161	          0.25509928	          0.21905372	          0.14999522	          0.05001401	          0.05001187	          0.05883495	          0.05000041	          0.09586911	          0.07483152	          0.05883625	          0.05884171	          0.05883806	          0.05883670	          0.31502875	          0.05000896	          0.05924264	          0.05886310	          0.05885722	          0.05884893	          0.30970177	          0.61055873	          0.06923438	          0.06923403	          0.08146695	          0.14699249	          0.08627570	          0.09702601	          0.09588890	          0.24035613	          0.31290718	          0.28333165	          0.26640150	          0.26912876	          0.32729108	          0.05000009	          0.24643636	          0.19919000	          0.05000038	          0.05000010	          0.05000084	          0.05743087	          0.06923294	          0.08037341	          0.05000005	          0.05000013	          0.11079039	          0.05000022	          0.05000021	          0.05000023	          0.11715119	          0.05372490	          0.13036451	          0.05000084	          0.06990477	          0.14150200	          0.33421083	          0.32411079	          0.18956528	          0.14596127	          0.05000088	          0.08147211	          0.14560679	          0.05000346	          0.07209047	          0.14825569	          0.06923184	          0.06923275	          0.49814967	          0.17201597	          0.07737799	          0.05884385	          0.05883634	          0.05883649	          0.05883623	          0.06923312	          0.06923404	          0.06923311	          0.06383519	          0.05883596	          0.06922879	          0.54601669	          0.31433340	          0.17096819	          0.13715337	          0.61104605	          0.05883654	          0.05000001	          0.08476729	          0.08146746	
          0.02120585	         -2.92400616	         -0.79543496	          3.91790103	          0.03165149	          0.92273009	         -0.00221615	        -15.72714792	          0.71043921	          6.91459572	         24.74697077	          3.11143484	         -1.73834575	        -11.62382085	         -8.67752496	         -1.01801741	          2.49021041	         11.90318761	         -1.73218509	          1.26700065	          0.13515649	         16.01660854	          0.38778469	         -1.47724269	         -0.04335040	         -1.69874113	          3.89299991	        -13.46456510	         13.84715448	         -6.65970994	        -13.45994235	          6.39902531	         30.67278480	         17.30683708	         86.51662706	         86.51662706	          0.27268755	          0.13273594	          0.07307768	          0.27630644	          0.18615709	          0.12746949	          0.05000271	          0.05000047	          0.05000043	          0.05000158	          0.08147217	          0.07714133	          0.05000093	          0.05000545	          0.05000369	          0.05000145	          0.28801719	          0.05915149	          0.05034636	          0.05002492	          0.05001903	          0.05001171	          0.26319216	          0.59020838	          0.05883704	          0.05883691	          0.06923255	          0.12491779	          0.07331949	          0.08245530	          0.08148892	          0.20426021	          0.26591580	          0.24078180	          0.22639419	          0.22871214	          0.27813978	          0.05000028	          0.25236608	          0.16927852	          0.05000023	          0.14715149	          0.05000038	          0.06113006	          0.05883576	          0.06830320	          0.28347421	          0.26554925	          0.31517365	          0.36475972	          0.23127144	          0.26244635	          0.11179845	          0.07720927	          0.12091741	          0.06923535	          0.05940711	          0.12025177	          0.28402029	          0.27543711	          0.16109738	          0.16535527	          0.05000165	          0.06923800	          0.12374133	          0.05000113	          0.06126535	          0.13094729	          0.05883601	          0.05883592	          0.42333920	          0.14618336	          0.09588282	          0.05000693	          0.05000093	          0.05000097	          0.05000070	          0.05883592	          0.05883671	          0.05883590	          0.05424873	          0.05000114	          0.05883307	          0.60693063	          0.26713625	          0.15379361	          0.49448327	          0.69878038	          0.05000096	          0.06728999	          0.11280985	          0.06923295	
          0.03180878	         -2.91706888	         -0.88609730	          4.04451566	          0.04759403	          0.92273570	         -0.00198896	        -15.45439601	          0.47554055	          6.79253342	         24.16827425	          3.30899037	         -1.52325197	        -13.57860242	         -9.30326244	         -1.94912674	          1.47384427	         12.75723244	         -1.99039483	          0.15858606	          0.31355749	         18.57713010	          0.09154940	         -1.29709912	          0.20281315	         -1.73828461	          3.57072390	        -13.46904851	         14.09199189	         -7.33532662	        -13.47220956	          6.23838641	         31.48139368	         17.06510514	         86.51662706	         86.51662706	          0.23173634	          0.11280211	          0.06210313	          0.23481196	          0.15820073	          0.10832659	          0.05001162	          0.05000078	          0.05000057	          0.05000041	          0.06923713	          0.16199195	          0.21968898	          0.05000169	          0.05001329	          0.07605961	          0.25260119	          0.05027556	          0.05000128	          0.05000353	          0.05000237	          0.05000232	          0.22366688	          0.54826993	          0.05000118	          0.05000154	          0.05883549	          0.10615817	          0.11806921	          0.11928861	          0.11260911	          0.17358507	          0.22598143	          0.20462195	          0.19239507	          0.19436504	          0.23636975	          0.19807291	          0.21446668	          0.14385689	          0.36500977	          0.20270510	          0.05000012	          0.09267485	          0.05000003	          0.05804567	          0.37443463	          0.36977732	          0.33215088	          0.33389472	          0.30457938	          0.22303581	          0.09500910	          0.09734429	          0.10275875	          0.05883809	          0.05048575	          0.10219282	          0.24136731	          0.23407483	          0.24158647	          0.20997084	          0.05000084	          0.05884074	          0.11264070	          0.23547837	          0.19468506	          0.22004090	          0.05000032	          0.05000028	          0.35976353	          0.12423015	          0.08148373	          0.05000016	          0.05000657	          0.16130467	          0.10520954	          0.05000015	          0.05000084	          0.05000012	          0.05000003	          0.05000027	          0.05000018	          0.73789739	          0.30388806	          0.15744891	          0.70383241	          0.77125112	          0.31433602	          0.08703305	          0.09586844	          0.05883578	
